<svg width="50" height="50" viewBox="0 0 50 50" fill="none" xmlns="http://www.w3.org/2000/svg">
<path d="M24.8333 20.6666C27.0434 20.6666 29.1631 19.7886 30.7259 18.2258C32.2887 16.663 33.1666 14.5434 33.1666 12.3333C33.1666 10.1231 32.2887 8.0035 30.7259 6.44069C29.1631 4.87789 27.0434 3.99992 24.8333 3.99992C22.6232 3.99992 20.5035 4.87789 18.9407 6.44069C17.3779 8.0035 16.5 10.1231 16.5 12.3333C16.5 14.5434 17.3779 16.663 18.9407 18.2258C20.5035 19.7886 22.6232 20.6666 24.8333 20.6666ZM11.2916 26.9166C12.673 26.9166 13.9977 26.3679 14.9745 25.3911C15.9512 24.4143 16.5 23.0896 16.5 21.7083C16.5 20.3269 15.9512 19.0022 14.9745 18.0254C13.9977 17.0487 12.673 16.4999 11.2916 16.4999C9.9103 16.4999 8.58554 17.0487 7.60879 18.0254C6.63204 19.0022 6.0833 20.3269 6.0833 21.7083C6.0833 23.0896 6.63204 24.4143 7.60879 25.3911C8.58554 26.3679 9.9103 26.9166 11.2916 26.9166ZM43.5833 21.7083C43.5833 23.0896 43.0346 24.4143 42.0578 25.3911C41.0811 26.3679 39.7563 26.9166 38.375 26.9166C36.9936 26.9166 35.6689 26.3679 34.6921 25.3911C33.7154 24.4143 33.1666 23.0896 33.1666 21.7083C33.1666 20.3269 33.7154 19.0022 34.6921 18.0254C35.6689 17.0487 36.9936 16.4999 38.375 16.4999C39.7563 16.4999 41.0811 17.0487 42.0578 18.0254C43.0346 19.0022 43.5833 20.3269 43.5833 21.7083ZM24.8333 22.7499C27.596 22.7499 30.2455 23.8474 32.199 25.8009C34.1525 27.7544 35.25 30.4039 35.25 33.1666V45.6666H14.4166V33.1666C14.4166 30.4039 15.5141 27.7544 17.4676 25.8009C19.4211 23.8474 22.0706 22.7499 24.8333 22.7499ZM10.25 33.1666C10.25 31.7228 10.4583 30.3291 10.85 29.0124L10.4958 29.0416C8.71013 29.2376 7.05969 30.086 5.86093 31.4239C4.66218 32.7618 3.9995 34.4952 3.99997 36.2916V45.6666H10.25V33.1666ZM45.6666 45.6666V36.2916C45.6669 34.434 44.9581 32.6464 43.6851 31.2936C42.4121 29.9409 40.6708 29.1249 38.8166 29.0124C39.2062 30.3291 39.4166 31.7228 39.4166 33.1666V45.6666H45.6666Z" fill="#FEFEFE"/>
</svg>
